<?xml version="1.0" encoding="UTF-8" standalone="no"?>
<!DOCTYPE svg PUBLIC "-//W3C//DTD SVG 1.1//EN"
 "http://www.w3.org/Graphics/SVG/1.1/DTD/svg11.dtd">
<!-- Generated by graphviz version 2.43.0 (0)
 -->
<!-- Title: distobjref Pages: 1 -->
<svg width="368pt" height="319pt"
 viewBox="0.00 0.00 368.47 319.00" xmlns="http://www.w3.org/2000/svg" xmlns:xlink="http://www.w3.org/1999/xlink">
<g id="graph0" class="graph" transform="scale(1 1) rotate(0) translate(4 315)">
<title>distobjref</title>
<polygon fill="white" stroke="#000000" points="-4,4 -4,-315 364.47,-315 364.47,4 -4,4"/>
<g id="clust1" class="cluster">
<title>cluster_distobjref</title>
<polygon fill="#f7fbff" stroke="black" points="8,-22 8,-259 221.58,-259 221.58,-22 8,-22"/>
<text text-anchor="middle" x="114.79" y="-243.8" font-family="Times,serif" font-size="14.00">Master Process</text>
</g>
<g id="clust2" class="cluster">
<title>cluster_process1</title>
<polygon fill="#deebf7" stroke="black" points="241.58,-228 241.58,-303 352.47,-303 352.47,-228 241.58,-228"/>
<text text-anchor="middle" x="297.03" y="-287.8" font-family="Times,serif" font-size="14.00">process 1</text>
</g>
<g id="clust3" class="cluster">
<title>cluster_process2</title>
<polygon fill="#deebf7" stroke="black" points="241.58,-145 241.58,-220 352.47,-220 352.47,-145 241.58,-145"/>
<text text-anchor="middle" x="297.03" y="-204.8" font-family="Times,serif" font-size="14.00">process 2</text>
</g>
<g id="clust4" class="cluster">
<title>cluster_process3</title>
<polygon fill="#deebf7" stroke="black" points="241.58,-8 241.58,-137 352.47,-137 352.47,-8 241.58,-8"/>
<text text-anchor="middle" x="297.03" y="-121.8" font-family="Times,serif" font-size="14.00">process 3</text>
</g>
<!-- cr1 -->
<g id="node1" class="node">
<title>cr1</title>
<ellipse fill="white" stroke="black" cx="114.79" cy="-210" rx="98.58" ry="18"/>
<text text-anchor="middle" x="114.79" y="-206.3" font-family="Times,serif" font-size="14.00">Chunk Reference 1</text>
</g>
<!-- c1 -->
<g id="node5" class="node">
<title>c1</title>
<ellipse fill="white" stroke="black" cx="297.03" cy="-254" rx="47.39" ry="18"/>
<text text-anchor="middle" x="297.03" y="-250.3" font-family="Times,serif" font-size="14.00">chunk 1</text>
</g>
<!-- cr1&#45;&gt;c1 -->
<g id="edge1" class="edge">
<title>cr1&#45;&gt;c1</title>
<path fill="none" stroke="black" d="M174.81,-224.41C198.13,-230.1 224.63,-236.57 246.89,-242"/>
<polygon fill="black" stroke="black" points="246.24,-245.45 256.79,-244.42 247.9,-238.65 246.24,-245.45"/>
</g>
<!-- cr2 -->
<g id="node2" class="node">
<title>cr2</title>
<ellipse fill="white" stroke="black" cx="114.79" cy="-156" rx="98.58" ry="18"/>
<text text-anchor="middle" x="114.79" y="-152.3" font-family="Times,serif" font-size="14.00">Chunk Reference 2</text>
</g>
<!-- c2 -->
<g id="node6" class="node">
<title>c2</title>
<ellipse fill="white" stroke="black" cx="297.03" cy="-171" rx="47.39" ry="18"/>
<text text-anchor="middle" x="297.03" y="-167.3" font-family="Times,serif" font-size="14.00">chunk 2</text>
</g>
<!-- cr2&#45;&gt;c2 -->
<g id="edge2" class="edge">
<title>cr2&#45;&gt;c2</title>
<path fill="none" stroke="black" d="M204.85,-163.41C216.94,-164.42 229.05,-165.43 240.32,-166.36"/>
<polygon fill="black" stroke="black" points="240.15,-169.86 250.4,-167.2 240.73,-162.89 240.15,-169.86"/>
</g>
<!-- cr3 -->
<g id="node3" class="node">
<title>cr3</title>
<ellipse fill="white" stroke="black" cx="114.79" cy="-102" rx="98.58" ry="18"/>
<text text-anchor="middle" x="114.79" y="-98.3" font-family="Times,serif" font-size="14.00">Chunk Reference 3</text>
</g>
<!-- c3 -->
<g id="node7" class="node">
<title>c3</title>
<ellipse fill="white" stroke="black" cx="297.03" cy="-88" rx="47.39" ry="18"/>
<text text-anchor="middle" x="297.03" y="-84.3" font-family="Times,serif" font-size="14.00">chunk 3</text>
</g>
<!-- cr3&#45;&gt;c3 -->
<g id="edge3" class="edge">
<title>cr3&#45;&gt;c3</title>
<path fill="none" stroke="black" d="M205.91,-95C217.51,-94.1 229.12,-93.2 239.95,-92.36"/>
<polygon fill="black" stroke="black" points="240.38,-95.83 250.08,-91.57 239.84,-88.85 240.38,-95.83"/>
</g>
<!-- cr4 -->
<g id="node4" class="node">
<title>cr4</title>
<ellipse fill="white" stroke="black" cx="114.79" cy="-48" rx="98.58" ry="18"/>
<text text-anchor="middle" x="114.79" y="-44.3" font-family="Times,serif" font-size="14.00">Chunk Reference 4</text>
</g>
<!-- c4 -->
<g id="node8" class="node">
<title>c4</title>
<ellipse fill="white" stroke="black" cx="297.03" cy="-34" rx="47.39" ry="18"/>
<text text-anchor="middle" x="297.03" y="-30.3" font-family="Times,serif" font-size="14.00">chunk 4</text>
</g>
<!-- cr4&#45;&gt;c4 -->
<g id="edge4" class="edge">
<title>cr4&#45;&gt;c4</title>
<path fill="none" stroke="black" d="M205.91,-41C217.51,-40.1 229.12,-39.2 239.95,-38.36"/>
<polygon fill="black" stroke="black" points="240.38,-41.83 250.08,-37.57 239.84,-34.85 240.38,-41.83"/>
</g>
</g>
</svg>
